<?xml version="1.0" encoding="iso-8859-1"?>
<!-- Generator: Adobe Illustrator 19.0.0, SVG Export Plug-In . SVG Version: 6.00 Build 0)  -->
<svg version="1.1" id="Capa_1" xmlns="http://www.w3.org/2000/svg" xmlns:xlink="http://www.w3.org/1999/xlink" x="0px" y="0px"
	 viewBox="0 0 504.123 504.123" style="enable-background:new 0 0 504.123 504.123;" xml:space="preserve">
<path style="fill:#4EBD9E;" d="M472.615,7.877H31.508c-13.391,0-23.631,10.24-23.631,23.631v293.809h488.369V31.508
	C496.246,18.117,486.006,7.877,472.615,7.877z"/>
<path style="fill:#183651;" d="M496.246,333.194H7.877c-4.726,0-7.877-3.151-7.877-7.877V31.508C0,14.178,14.178,0,31.508,0h441.108
	c17.329,0,31.508,14.178,31.508,31.508v293.809C504.123,330.043,500.972,333.194,496.246,333.194z M15.754,317.44h472.615V31.508
	c0-8.665-7.089-15.754-15.754-15.754H31.508c-8.665,0-15.754,7.089-15.754,15.754V317.44z"/>
<rect x="39.385" y="39.385" style="fill:#FFFFFF;" width="425.354" height="254.425"/>
<polygon style="fill:#173651;" points="464.738,136.271 392.271,192.985 322.954,157.538 241.034,198.498 131.545,178.806 
	39.385,218.191 39.385,273.329 464.738,273.329 "/>
<path style="fill:#E1E6E8;" d="M347.372,461.588H139.422c-13.391,0-23.631,10.24-23.631,23.631v11.028h256v-11.028
	C371.003,471.828,360.763,461.588,347.372,461.588z"/>
<path style="fill:#183651;" d="M371.003,504.123H115.791c-4.726,0-7.877-3.151-7.877-7.877v-11.028
	c0-17.329,14.178-31.508,31.508-31.508H348.16c17.329,0,31.508,14.178,31.508,31.508v11.028
	C378.88,500.972,375.729,504.123,371.003,504.123z M123.668,488.369h240.246v-3.151c0-8.665-7.089-15.754-15.754-15.754H139.422
	c-8.665,0-15.754,7.089-15.754,15.754V488.369z"/>
<polygon style="fill:#FFFFFF;" points="322.166,461.588 165.415,461.588 196.135,404.874 290.658,404.874 "/>
<path style="fill:#183651;" d="M322.166,469.465L322.166,469.465H165.415c-3.151,0-5.514-1.575-7.089-3.938
	c-1.575-2.363-1.575-5.514,0-7.877l30.72-55.926c1.575-2.363,3.938-3.938,7.089-3.938h94.523c3.151,0,5.514,1.575,7.089,3.938
	l30.72,55.138c0.788,1.575,1.575,3.151,1.575,4.726C330.043,465.526,326.105,469.465,322.166,469.465z M178.806,453.711h129.969
	l-22.055-40.172h-85.858L178.806,453.711z"/>
<path style="fill:#FFFFFF;" d="M7.877,325.317v55.926c0,13.391,10.24,23.631,23.631,23.631h441.108
	c13.391,0,23.631-10.24,23.631-23.631v-55.926H7.877z"/>
<path style="fill:#183651;" d="M472.615,412.751H31.508C14.178,412.751,0,398.572,0,381.243v-55.926
	c0-4.726,3.151-7.877,7.877-7.877h488.369c4.726,0,7.877,3.151,7.877,7.877v55.926C504.123,398.572,489.945,412.751,472.615,412.751
	z M15.754,333.194v48.049c0,8.665,7.089,15.754,15.754,15.754h441.108c8.665,0,15.754-7.089,15.754-15.754v-48.049H15.754z"/>
<g>
	<circle style="fill:#E1E6E8;" cx="196.135" cy="365.489" r="15.754"/>
	<circle style="fill:#E1E6E8;" cx="252.062" cy="365.489" r="15.754"/>
	<circle style="fill:#E1E6E8;" cx="307.988" cy="365.489" r="15.754"/>
</g>
<polygon style="fill:#FCBD5E;" points="464.738,156.751 392.271,213.465 322.954,178.018 241.034,218.978 131.545,199.286 
	39.385,238.671 39.385,293.809 464.738,293.809 "/>
<g>
	<polygon style="fill:#E1E6E8;" points="115.003,94.523 85.858,94.523 85.858,131.545 74.043,131.545 100.037,166.991 
		126.031,131.545 115.003,131.545 	"/>
	<polygon style="fill:#E1E6E8;" points="215.828,78.769 187.471,78.769 187.471,115.791 175.655,115.791 201.649,151.237 
		227.643,115.791 215.828,115.791 	"/>
	<polygon style="fill:#E1E6E8;" points="316.652,63.015 288.295,63.015 288.295,100.037 276.48,100.037 302.474,135.483 
		328.468,100.037 316.652,100.037 	"/>
	<polygon style="fill:#E1E6E8;" points="418.265,55.138 389.12,55.138 389.12,92.16 378.092,92.16 404.086,127.606 430.08,92.16 
		418.265,92.16 	"/>
</g>
<g>
	<rect x="144.935" y="259.938" style="fill:#183651;" width="15.754" height="15.754"/>
	<rect x="277.268" y="259.938" style="fill:#183651;" width="15.754" height="15.754"/>
	<rect x="343.434" y="259.938" style="fill:#183651;" width="15.754" height="15.754"/>
	<rect x="78.769" y="259.938" style="fill:#183651;" width="15.754" height="15.754"/>
	<rect x="211.102" y="259.938" style="fill:#183651;" width="15.754" height="15.754"/>
	<rect x="409.6" y="259.938" style="fill:#183651;" width="15.754" height="15.754"/>
</g>
<g>
</g>
<g>
</g>
<g>
</g>
<g>
</g>
<g>
</g>
<g>
</g>
<g>
</g>
<g>
</g>
<g>
</g>
<g>
</g>
<g>
</g>
<g>
</g>
<g>
</g>
<g>
</g>
<g>
</g>
</svg>
